<?xml version="1.0" encoding="UTF-8" standalone="no"?>
<!-- Created with Inkscape (http://www.inkscape.org/) -->

<svg
   width="512"
   height="512"
   viewBox="0 0 135.46666 135.46666"
   version="1.1"
   id="svg5"
   xmlns="http://www.w3.org/2000/svg"
   xmlns:svg="http://www.w3.org/2000/svg">
  <defs
     id="defs2" />
  <g
     id="layer1">
    <path
       style="font-size:42.9264px;line-height:1.25;font-family:Verdana;-inkscape-font-specification:Verdana;letter-spacing:0px;word-spacing:0px;fill:#3b82f6;stroke-width:1.07316"
       d="M 49.760047,55.544982 H 38.609244 V 83.065666 H 34.459133 V 55.544982 H 23.308331 v -3.688988 h 26.451716 z m 18.864141,16.22316 H 51.37398 q 0,2.158896 0.649764,3.772828 0.649765,1.592972 1.781614,2.62002 1.089928,1.006087 2.578099,1.509131 1.509131,0.503044 3.311704,0.503044 2.389458,0 4.799876,-0.943207 2.431378,-0.964167 3.458426,-1.886414 h 0.209601 v 4.296832 q -1.991214,0.838406 -4.06627,1.40433 -2.075055,0.565924 -4.359712,0.565924 -5.826924,0 -9.096708,-3.144023 -3.269784,-3.164984 -3.269784,-8.970947 0,-5.743083 3.123063,-9.117668 3.144023,-3.374585 8.258301,-3.374585 4.736996,0 7.294135,2.766741 2.578099,2.76674 2.578099,7.860058 z M 64.788479,68.74988 q -0.02096,-3.102103 -1.572011,-4.799876 -1.530092,-1.697773 -4.674115,-1.697773 -3.164984,0 -5.051398,1.865454 -1.865454,1.865454 -2.116975,4.632195 z m 30.077824,14.315786 h -4.967557 l -6.644369,-8.991907 -6.68629,8.991907 H 71.977813 L 81.116441,71.390859 72.061653,59.653172 h 4.967557 l 6.602449,8.845186 6.62341,-8.845186 h 4.611234 l -9.201508,11.528086 z m 17.292127,-0.209601 q -1.11089,0.293442 -2.43138,0.482083 -1.29953,0.188642 -2.32657,0.188642 -3.58419,0 -5.44964,-1.928335 -1.86546,-1.928334 -1.86546,-6.183246 V 62.964877 h -2.661938 v -3.311705 h 2.661938 v -6.72821 h 3.94051 v 6.72821 h 8.13254 v 3.311705 h -8.13254 v 10.668719 q 0,1.844494 0.0838,2.892502 0.0838,1.027047 0.58689,1.928334 0.46112,0.838406 1.25761,1.236649 0.81744,0.377283 2.47329,0.377283 0.96417,0 2.01218,-0.272482 1.04801,-0.293442 1.50913,-0.482084 h 0.2096 z"
       id="text1159"
       aria-label="Text" />
  </g>
</svg>
