<?xml version="1.0" encoding="UTF-8" standalone="no"?>
<!-- Created with Inkscape (http://www.inkscape.org/) -->

<svg
   width="512"
   height="512"
   viewBox="0 0 135.46666 135.46666"
   version="1.1"
   id="svg5"
   inkscape:export-filename="colorpicker.svg"
   inkscape:export-xdpi="96"
   inkscape:export-ydpi="96"
   xml:space="preserve"
   xmlns:inkscape="http://www.inkscape.org/namespaces/inkscape"
   xmlns:sodipodi="http://sodipodi.sourceforge.net/DTD/sodipodi-0.dtd"
   xmlns="http://www.w3.org/2000/svg"
   xmlns:svg="http://www.w3.org/2000/svg"><sodipodi:namedview
     id="namedview7"
     pagecolor="#505050"
     bordercolor="#ffffff"
     borderopacity="1"
     inkscape:showpageshadow="0"
     inkscape:pageopacity="0"
     inkscape:pagecheckerboard="1"
     inkscape:deskcolor="#505050"
     inkscape:document-units="mm"
     showgrid="false" /><defs
     id="defs2" /><g
     inkscape:label="Layer 1"
     inkscape:groupmode="layer"
     id="layer1"><g
       id="g6677"
       transform="matrix(0.68245324,0,0,0.68245324,21.50854,21.506441)"><path
         id="path6589-7"
         style="color:#000000;fill:#3b82f6;fill-opacity:1;stroke:#3b82f6;stroke-width:4;stroke-linecap:round;stroke-dasharray:none;stroke-opacity:1"
         d="m 118.71128,6.7540569 c 2.65255,-6.57e-5 5.19645,1.0537425 7.07192,2.9295369 3.90569,3.9053192 3.90569,10.2374862 0,14.1428062 L 106.55801,43.051583 92.41521,28.908777 111.64091,9.6835938 c 1.87509,-1.8754146 4.41836,-2.9291915 7.07037,-2.9295369 z"
         sodipodi:nodetypes="ccccccc" /><path
         style="color:#000000;fill:none;stroke:#3b82f6;stroke-width:4;stroke-linecap:round;stroke-dasharray:none;stroke-opacity:1"
         d="m 118.71094,6.7539062 a 10,10 0 0 0 -7.07031,2.9296876 L 9.6835938,111.64063 a 10,10 0 0 0 0,14.14257 10,10 0 0 0 14.1425782,0 L 125.7832,23.826172 a 10,10 0 0 0 0,-14.1425782 10,10 0 0 0 -7.07226,-2.9296876 z"
         id="path6589" /><path
         style="fill:none;fill-opacity:1;stroke:#3b82f6;stroke-width:12;stroke-linecap:round;stroke-linejoin:miter;stroke-dasharray:none;stroke-opacity:1"
         d="M 110.16616,48.139649 87.327012,25.300505"
         id="path6591" /></g></g></svg>
