<?xml version="1.0" encoding="UTF-8" standalone="no"?>
<!-- Created with Inkscape (http://www.inkscape.org/) -->

<svg
   width="512"
   height="512"
   viewBox="0 0 135.46666 135.46666"
   version="1.1"
   id="svg5"
   inkscape:export-filename="image.svg"
   inkscape:export-xdpi="96"
   inkscape:export-ydpi="96"
   xml:space="preserve"
   sodipodi:docname="video.svg"
   xmlns:inkscape="http://www.inkscape.org/namespaces/inkscape"
   xmlns:sodipodi="http://sodipodi.sourceforge.net/DTD/sodipodi-0.dtd"
   xmlns="http://www.w3.org/2000/svg"
   xmlns:svg="http://www.w3.org/2000/svg"><sodipodi:namedview
     id="namedview7"
     pagecolor="#505050"
     bordercolor="#ffffff"
     borderopacity="1"
     inkscape:showpageshadow="0"
     inkscape:pageopacity="0"
     inkscape:pagecheckerboard="1"
     inkscape:deskcolor="#505050"
     inkscape:document-units="mm"
     showgrid="false" /><defs
     id="defs2" /><g
     inkscape:label="Layer 1"
     inkscape:groupmode="layer"
     id="layer1"><g
       style="isolation:isolate;fill:#3b82f6;fill-opacity:1"
       id="g2130"
       transform="matrix(0.53298079,0,0,0.53298079,-0.48820543,-0.48830387)"><path
         d="m 125.952,37.739 c 39.62,0 79.974,0.978 89.268,2.201 9.293,1.467 19.81,4.647 23.234,7.092 3.424,2.446 8.315,8.071 11.005,12.718 3.669,6.603 4.892,14.918 6.114,40.109 0.734,17.609 0.49,44.511 -0.489,59.919 -1.467,18.343 -3.668,31.06 -6.359,36.441 -2.201,4.646 -6.847,10.516 -10.271,12.962 -3.669,2.935 -13.207,5.625 -24.457,6.848 -10.027,1.223 -46.957,2.201 -81.93,2.201 -34.974,0.244 -73.371,-0.978 -85.599,-2.201 C 33.75,214.561 21.522,211.871 17.364,209.181 13.451,206.98 8.071,200.621 5.136,195.24 0.245,186.191 0,181.545 0,130.43 0,83.962 0.734,73.69 4.402,63.907 6.848,56.57 11.25,50.212 15.897,47.277 c 4.158,-2.69 14.185,-5.87 22.745,-7.093 8.315,-1.222 47.69,-2.201 87.31,-2.445 z m -23.234,53.56 c 0.734,0 15.408,8.071 33.017,17.854 17.364,9.538 31.549,18.098 31.549,18.831 0,0.734 -14.185,9.294 -31.549,19.077 -17.609,9.538 -32.283,17.608 -33.017,17.608 -0.733,0 -1.222,-16.63 -1.222,-36.685 0,-20.299 0.489,-36.685 1.222,-36.685 z"
         fill-rule="evenodd"
         fill="#eb1e1e"
         id="path2108"
         clip-path="url(#clipPath2123)"
         style="fill:#3b82f6;fill-opacity:1" /></g></g></svg>
