<?xml version="1.0" encoding="UTF-8" standalone="no"?>
<!-- Created with Inkscape (http://www.inkscape.org/) -->

<svg
   width="512"
   height="512"
   viewBox="0 0 135.46666 135.46666"
   version="1.1"
   id="svg5"
   xml:space="preserve"
   xmlns="http://www.w3.org/2000/svg"
   xmlns:svg="http://www.w3.org/2000/svg"><defs
     id="defs2" /><path
     d="m 24.123604,66.204082 q 0,1.815412 -0.795919,3.290994 -0.786977,1.475582 -2.101587,2.289388 -0.912177,0.563403 -2.038985,0.813805 -1.117865,0.250402 -2.951164,0.250402 H 12.873411 V 59.532663 h 3.326767 q 1.949556,0 3.09425,0.286174 1.153636,0.27723 1.949556,0.769091 1.359324,0.849577 2.119472,2.262559 0.760148,1.412981 0.760148,3.353595 z m -1.851184,-0.02683 q 0,-1.565011 -0.545518,-2.638162 -0.545518,-1.07315 -1.627611,-1.690211 -0.786977,-0.447146 -1.672326,-0.617062 -0.885349,-0.178858 -2.119472,-0.178858 h -1.663384 v 10.275415 h 1.663384 q 1.278837,0 2.226787,-0.187802 0.956892,-0.187801 1.752812,-0.697547 0.992664,-0.634948 1.484525,-1.672326 0.500803,-1.037379 0.500803,-2.593447 z m 10.81199,-1.484525 h -0.08943 q -0.375603,-0.08943 -0.73332,-0.125201 -0.348774,-0.04471 -0.831691,-0.04471 -0.778034,0 -1.502411,0.348774 -0.724376,0.33983 -1.395095,0.885349 v 7.091735 H 26.851195 V 62.85943 h 1.681269 v 1.475581 q 1.001607,-0.804862 1.761755,-1.13575 0.769091,-0.339831 1.565011,-0.339831 0.438203,0 0.634947,0.02683 0.196744,0.01789 0.590233,0.08049 z m 10.096557,3.165794 q 0,2.441417 -1.252009,3.854398 -1.252009,1.412981 -3.353595,1.412981 -2.119472,0 -3.371481,-1.412981 -1.243066,-1.412981 -1.243066,-3.854398 0,-2.441417 1.243066,-3.854399 1.252009,-1.421924 3.371481,-1.421924 2.101586,0 3.353595,1.421924 1.252009,1.412982 1.252009,3.854399 z m -1.734927,0 q 0,-1.940614 -0.760148,-2.87962 -0.760148,-0.94795 -2.110529,-0.94795 -1.368267,0 -2.128415,0.94795 -0.751205,0.939006 -0.751205,2.87962 0,1.878013 0.760148,2.852791 0.760148,0.965835 2.119472,0.965835 1.341438,0 2.101586,-0.956892 0.769091,-0.965835 0.769091,-2.861734 z M 54.574248,67.73332 q 0,1.216237 -0.348774,2.226787 -0.348774,1.001607 -0.983721,1.699155 -0.590233,0.661776 -1.395096,1.028435 -0.795919,0.357717 -1.690211,0.357717 -0.778034,0 -1.412982,-0.169915 -0.626004,-0.169916 -1.278837,-0.527633 v 4.185287 H 45.783358 V 62.85943 h 1.681269 v 1.046321 q 0.670719,-0.563404 1.50241,-0.939006 0.840635,-0.384546 1.788584,-0.384546 1.80647,0 2.808077,1.368267 1.01055,1.359324 1.01055,3.782854 z m -1.734926,0.04471 q 0,-1.806469 -0.617062,-2.700761 -0.617061,-0.894292 -1.895899,-0.894292 -0.724376,0 -1.457696,0.313002 -0.733319,0.313002 -1.404038,0.822749 v 5.660868 q 0.715433,0.321945 1.22518,0.438203 0.518689,0.116258 1.171522,0.116258 1.404039,0 2.191016,-0.94795 0.786977,-0.947949 0.786977,-2.808077 z m 12.457485,5.070636 h -1.681269 v -1.046322 q -0.724377,0.626005 -1.511354,0.974779 -0.786977,0.348773 -1.708098,0.348773 -1.788583,0 -2.843848,-1.377209 -1.046322,-1.37721 -1.046322,-3.818627 0,-1.269895 0.357717,-2.262559 0.36666,-0.992664 0.983721,-1.690211 0.608119,-0.679662 1.412982,-1.037379 0.813805,-0.357717 1.681269,-0.357717 0.786977,0 1.395095,0.169916 0.608119,0.160972 1.278838,0.509746 v -4.328373 h 1.681269 z m -1.681269,-2.459303 v -5.732412 q -0.679662,-0.304059 -1.216238,-0.420317 -0.536575,-0.116258 -1.171522,-0.116258 -1.412981,0 -2.199958,0.983721 -0.786977,0.983722 -0.786977,2.790191 0,1.779641 0.608118,2.709705 0.608119,0.921121 1.949557,0.921121 0.715433,0 1.448753,-0.313002 0.733319,-0.321945 1.368267,-0.822749 z m 13.50381,-2.530846 q 0,2.441417 -1.252009,3.854398 -1.252009,1.412981 -3.353595,1.412981 -2.119472,0 -3.37148,-1.412981 -1.243066,-1.412981 -1.243066,-3.854398 0,-2.441417 1.243066,-3.854399 1.252008,-1.421924 3.37148,-1.421924 2.101586,0 3.353595,1.421924 1.252009,1.412982 1.252009,3.854399 z m -1.734926,0 q 0,-1.940614 -0.760149,-2.87962 -0.760148,-0.94795 -2.110529,-0.94795 -1.368266,0 -2.128415,0.94795 -0.751205,0.939006 -0.751205,2.87962 0,1.878013 0.760148,2.852791 0.760148,0.965835 2.119472,0.965835 1.341438,0 2.101586,-0.956892 0.769092,-0.965835 0.769092,-2.861734 z m 16.902116,-4.999092 -2.60239,9.989241 H 88.12808 L 85.561462,65.148817 83.01273,72.848671 H 81.465605 L 78.836386,62.85943 h 1.752812 l 1.833299,7.735625 2.495075,-7.735625 h 1.386152 l 2.557675,7.735625 1.734927,-7.735625 z m 10.776222,9.989241 h -1.68127 v -5.687697 q 0,-0.688605 -0.0805,-1.28778 -0.0805,-0.608119 -0.29511,-0.94795 -0.22358,-0.375603 -0.64389,-0.554461 -0.420322,-0.187801 -1.091041,-0.187801 -0.688605,0 -1.43981,0.339831 -0.751205,0.339831 -1.43981,0.867463 v 7.458395 H 94.71007 V 62.85943 h 1.681269 v 1.108922 q 0.786977,-0.652834 1.627611,-1.019493 0.840635,-0.36666 1.725984,-0.36666 1.618666,0 2.468246,0.974778 0.84958,0.974779 0.84958,2.808077 z"
     id="text1"
     style="font-size:18.3151px;fill:#3b82f6;stroke-width:1.52625"
     aria-label="Dropdown" /><path
     d="m 125.83001,68.3523 h -4.21707 v 4.217071 h -1.28447 V 68.3523 h -4.21707 v -1.238039 h 4.21707 v -4.21707 h 1.28447 v 4.21707 h 4.21707 z"
     id="text1-9"
     style="font-size:15.8469px;fill:#3b82f6;stroke-width:1.32057"
     aria-label="+" /></svg>
