<?xml version="1.0" encoding="UTF-8" standalone="no"?>
<!-- Created with Inkscape (http://www.inkscape.org/) -->

<svg
   width="512"
   height="512"
   viewBox="0 0 135.46666 135.46666"
   version="1.1"
   id="svg5"
   xml:space="preserve"
   xmlns="http://www.w3.org/2000/svg"
   xmlns:svg="http://www.w3.org/2000/svg"><defs
     id="defs2" /><g
     id="layer1"><rect
       style="fill:none;stroke:#3b82f6;stroke-width:1.91325;stroke-linecap:round;stroke-linejoin:miter;stroke-dasharray:none;stroke-opacity:1"
       id="rect3811-3"
       width="130.52345"
       height="43.121208"
       x="2.4716256"
       y="46.172657"
       ry="0" /><path
       d="m 25.127359,71.187468 q 0,0.885152 -0.417141,1.749957 -0.406967,0.864804 -1.149681,1.46508 -0.813934,0.651147 -1.90257,1.017417 -1.078462,0.36627 -2.604587,0.36627 -1.638042,0 -2.95051,-0.305225 -1.302294,-0.305225 -2.655458,-0.905501 v -2.523194 h 0.142438 q 1.149681,0.956372 2.655459,1.475255 1.505777,0.518882 2.828419,0.518882 1.872047,0 2.909813,-0.702017 1.047939,-0.702018 1.047939,-1.872048 0,-1.007243 -0.498534,-1.485429 -0.48836,-0.478186 -1.495603,-0.742714 -0.763063,-0.203483 -1.65839,-0.335748 -0.885153,-0.132264 -1.882221,-0.335747 -2.014486,-0.427315 -2.991206,-1.454906 -0.966547,-1.037766 -0.966547,-2.696156 0,-1.902569 1.607519,-3.113296 1.607519,-1.2209 4.079843,-1.2209 1.597344,0 2.930161,0.305225 1.332816,0.305225 2.360407,0.752889 v 2.380755 h -0.142438 q -0.864805,-0.73254 -2.279015,-1.210726 -1.404035,-0.48836 -2.87929,-0.48836 -1.617693,0 -2.604587,0.671495 -0.976721,0.671495 -0.976721,1.729609 0,0.946198 0.488361,1.485429 0.48836,0.539231 1.719434,0.824108 0.651147,0.142438 1.851699,0.345922 1.200552,0.203483 2.034834,0.417141 1.688913,0.447663 2.543543,1.353164 0.85463,0.905501 0.85463,2.533369 z M 37.722982,70.027612 H 29.34964 q 0,1.04794 0.315399,1.831351 0.315399,0.773237 0.864805,1.271771 0.529056,0.48836 1.251423,0.73254 0.73254,0.24418 1.607518,0.24418 1.159856,0 2.329885,-0.457837 1.180204,-0.468012 1.678738,-0.915676 h 0.101742 v 2.085705 q -0.966546,0.406967 -1.973789,0.68167 -1.007243,0.274702 -2.116227,0.274702 -2.82842,0 -4.41559,-1.526125 -1.587171,-1.5363 -1.587171,-4.354545 0,-2.787723 1.515952,-4.425764 1.526125,-1.638041 4.008623,-1.638041 2.299362,0 3.540611,1.34299 1.251423,1.34299 1.251423,3.815314 z m -1.861873,-1.46508 q -0.01017,-1.505778 -0.763063,-2.329885 -0.742714,-0.824108 -2.26884,-0.824108 -1.5363,0 -2.451975,0.905501 -0.905501,0.905501 -1.027591,2.248492 z m 6.694604,6.948958 H 40.642969 V 59.680481 h 1.912744 z m 13.297641,-5.483878 h -8.373342 q 0,1.04794 0.315399,1.831351 0.3154,0.773237 0.864805,1.271771 0.529057,0.48836 1.251423,0.73254 0.73254,0.24418 1.607518,0.24418 1.159856,0 2.329885,-0.457837 1.180204,-0.468012 1.678739,-0.915676 h 0.101741 v 2.085705 q -0.966546,0.406967 -1.973789,0.68167 -1.007243,0.274702 -2.116227,0.274702 -2.828419,0 -4.41559,-1.526125 -1.587171,-1.5363 -1.587171,-4.354545 0,-2.787723 1.515952,-4.425764 1.526125,-1.638041 4.008623,-1.638041 2.299362,0 3.540611,1.34299 1.251423,1.34299 1.251423,3.815314 z m -1.861873,-1.46508 q -0.01017,-1.505778 -0.763063,-2.329885 -0.742714,-0.824108 -2.26884,-0.824108 -1.5363,0 -2.451975,0.905501 -0.905501,0.905501 -1.027591,2.248492 z m 13.165375,6.236766 q -0.956372,0.457838 -1.821176,0.712192 -0.85463,0.254354 -1.821176,0.254354 -1.231075,0 -2.258666,-0.356096 -1.027591,-0.36627 -1.760132,-1.09881 -0.742714,-0.73254 -1.149681,-1.851699 -0.406967,-1.119159 -0.406967,-2.614762 0,-2.787723 1.526126,-4.374893 1.5363,-1.587171 4.04932,-1.587171 0.97672,0 1.912744,0.274703 0.946197,0.274703 1.729608,0.671495 v 2.126402 h -0.101741 q -0.874979,-0.68167 -1.811003,-1.04794 -0.925849,-0.36627 -1.811002,-0.36627 -1.627867,0 -2.574065,1.098811 -0.936024,1.088636 -0.936024,3.204863 0,2.055182 0.915676,3.164167 0.925849,1.09881 2.594413,1.09881 0.579928,0 1.180204,-0.152612 0.600276,-0.152613 1.078462,-0.396793 0.417141,-0.213657 0.783411,-0.447663 0.36627,-0.24418 0.579928,-0.417141 h 0.101741 z m 8.352993,0.61045 q -0.539231,0.142439 -1.180203,0.234006 -0.630799,0.09157 -1.129333,0.09157 -1.739783,0 -2.645284,-0.936024 -0.905502,-0.936024 -0.905502,-3.00138 v -6.043457 h -1.292119 v -1.607519 h 1.292119 v -3.265909 h 1.912744 v 3.265909 h 3.947578 v 1.607519 h -3.947578 v 5.178652 q 0,0.895327 0.0407,1.404036 0.0407,0.498534 0.284877,0.936023 0.223832,0.406967 0.61045,0.600276 0.396793,0.183136 1.200552,0.183136 0.468012,0 0.97672,-0.132265 0.508709,-0.142438 0.732541,-0.234006 h 0.101741 z"
       id="text5770"
       style="font-size:20.8367px;line-height:1.25;letter-spacing:0px;word-spacing:0px;fill:#3b82f6;stroke-width:0.699009"
       aria-label="Select" /><path
       style="fill:#3b82f6;fill-opacity:1;stroke:none;stroke-width:1.91325px;stroke-linecap:butt;stroke-linejoin:miter;stroke-opacity:1"
       d="m 107.54011,67.733261 h 12.29304 l -6.37343,6.37337 z"
       id="path5772" /></g></svg>
