<?xml version="1.0" encoding="UTF-8" standalone="no"?>
<!-- Created with Inkscape (http://www.inkscape.org/) -->

<svg
   width="512"
   height="512"
   viewBox="0 0 135.46666 135.46666"
   version="1.1"
   id="svg5"
   xml:space="preserve"
   xmlns="http://www.w3.org/2000/svg"
   xmlns:svg="http://www.w3.org/2000/svg"><defs
     id="defs2" /><g
     id="layer1"><path
       id="Path 1"
       class="s0"
       d="m 79.998286,41.355202 c -0.495465,0.08258 -1.486394,1.032217 -2.229591,2.105725 -0.743198,1.073507 -5.821713,10.11574 -11.230535,20.107612 -5.408825,9.991876 -11.354403,21.015968 -13.129819,24.484221 l -3.261811,6.275889 5.986869,0.04129 c 2.642477,-4.0463 7.968725,-13.666574 13.501416,-23.988759 5.573979,-10.322183 11.354401,-21.057255 12.840795,-23.8236 1.527684,-2.766343 2.601191,-5.161091 2.436036,-5.284957 -0.165155,-0.123858 -1.114795,-0.206444 -2.147014,-0.165155 -1.032219,0.04129 -2.270881,0.165155 -2.766346,0.247732 z m -42.857707,11.726 c -2.064436,0.908352 -9.289966,3.963719 -16.102607,6.853929 -6.812641,2.848924 -12.7995076,5.57398 -13.3362613,6.069445 -0.867063,0.784485 -0.9496415,1.156084 -0.8257744,4.335317 l 0.1238582,3.468254 c 15.3594095,6.358464 22.9565365,9.496409 26.8376785,11.10667 3.839853,1.56897 7.266817,2.972789 7.514549,3.055366 0.371599,0.123858 0.536754,-0.454176 0.536754,-1.899282 0,-1.114796 -0.123858,-2.353457 -0.33031,-2.766345 -0.165155,-0.371598 -1.857993,-1.445105 -3.798564,-2.394747 -1.940569,-0.94964 -8.381613,-3.757275 -14.36848,-6.234599 -5.945578,-2.477324 -10.817648,-4.58305 -10.817648,-4.706916 0,-0.123858 4.87207,-2.312169 10.817648,-4.913359 5.986867,-2.601191 12.427911,-5.491402 14.36848,-6.441043 1.940571,-0.94964 3.633409,-2.023148 3.798564,-2.394747 0.206444,-0.412887 0.33031,-1.362528 0.33031,-2.147014 0,-0.784487 -0.08259,-1.734126 -0.206444,-2.064436 -0.123858,-0.330311 -0.330303,-0.619331 -0.536745,-0.578043 -0.165156,0 -1.981859,0.784487 -4.005008,1.65155 z m 56.441702,0.330308 c -0.0413,1.156086 0.04129,2.394748 0.206444,2.807635 0.206442,0.371599 1.899281,1.445107 3.839853,2.394747 1.940569,0.949641 8.381612,3.757275 14.368482,6.234599 5.94558,2.477324 10.81766,4.583051 10.81766,4.706917 0,0.123874 -5.03723,2.436034 -11.23054,5.119802 -6.19332,2.683768 -12.675653,5.615268 -14.368491,6.441042 -1.692838,0.825776 -3.220522,1.816706 -3.426964,2.188304 -0.165156,0.412888 -0.289023,1.651549 -0.289023,2.766345 0,1.445106 0.165157,2.023148 0.495465,1.899282 0.289022,-0.08259 7.803573,-3.179232 16.639363,-6.853931 8.83579,-3.674697 16.51549,-7.101661 17.05225,-7.597126 0.78449,-0.743197 0.94963,-1.279952 0.94963,-3.757276 0,-2.229591 -0.16514,-3.055366 -0.74319,-3.550831 -0.41288,-0.371598 -1.32123,-0.94964 -1.98186,-1.321239 -0.66062,-0.330311 -8.01,-3.468255 -16.30905,-6.895219 -8.29903,-3.468255 -15.276832,-6.399753 -15.524564,-6.482331 -0.289021,-0.123859 -0.454177,0.536753 -0.495465,1.89928 z"
       style="stroke-width:0.412887" /></g><style
     id="style1">
		.s0 { fill: #3b82f6 } 
	</style></svg>
